<?xml version="1.0" encoding="UTF-8" standalone="no"?>
<!-- Created with Inkscape (http://www.inkscape.org/) -->

<svg
   width="210mm"
   height="297mm"
   viewBox="0 0 210 297"
   version="1.1"
   id="svg1"
   xml:space="preserve"
   inkscape:version="1.3.2 (091e20e, 2023-11-25)"
   sodipodi:docname="login.svg"
   xmlns:inkscape="http://www.inkscape.org/namespaces/inkscape"
   xmlns:sodipodi="http://sodipodi.sourceforge.net/DTD/sodipodi-0.dtd"
   xmlns="http://www.w3.org/2000/svg"
   xmlns:svg="http://www.w3.org/2000/svg"><sodipodi:namedview
     id="namedview1"
     pagecolor="#ffffff"
     bordercolor="#000000"
     borderopacity="0.25"
     inkscape:showpageshadow="2"
     inkscape:pageopacity="0.0"
     inkscape:pagecheckerboard="0"
     inkscape:deskcolor="#d1d1d1"
     inkscape:document-units="mm"
     inkscape:zoom="1.9776936"
     inkscape:cx="517.01639"
     inkscape:cy="517.52203"
     inkscape:window-width="1364"
     inkscape:window-height="732"
     inkscape:window-x="0"
     inkscape:window-y="34"
     inkscape:window-maximized="1"
     inkscape:current-layer="layer1" /><defs
     id="defs1" /><g
     inkscape:label="Layer 1"
     inkscape:groupmode="layer"
     id="layer1"><path
       d="m 117.21311,110.84908 c 0,0 -8.21531,1.02659 -7.92162,12.21846 0.29368,11.19188 -9.906003,13.42232 -9.906003,13.42232 l 1.079503,2.56645 c 0,0 7.76816,-1.29116 12.22904,-8.85825 4.46087,-7.56708 4.51908,-19.34898 4.51908,-19.34898 z"
       fill="#68e1fd"
       class="target-color"
       id="path1"
       style="stroke-width:0.264583" /><path
       d="m 117.21311,110.84908 c 0,0 -8.21531,1.02659 -7.92162,12.21846 0.29368,11.19188 -9.906003,13.42232 -9.906003,13.42232 l 1.079503,2.56645 c 0,0 7.76816,-1.29116 12.22904,-8.85825 4.46087,-7.56708 4.51908,-19.34898 4.51908,-19.34898 z"
       fill="#ffffff"
       opacity="0.44"
       id="path2"
       style="stroke-width:0.264583;fill:#50ebd0;fill-opacity:1" /><ellipse
       cx="142.47023"
       cy="162.53545"
       rx="34.935581"
       ry="4.4370627"
       fill="#e6e6e6"
       opacity="0.3"
       id="ellipse2"
       style="stroke-width:0.264583" /><path
       d="m 112.5194,161.25486 c 0,0 -0.4736,0.89693 -1.33879,0.84666 -0.86519,-0.0503 -1.2065,0.75142 -0.47096,1.0795 0.73555,0.32809 2.8575,-0.37571 2.8575,-0.37571 l 0.15611,-1.57162 z"
       fill="#68e1fd"
       class="target-color"
       id="path3"
       style="stroke-width:0.264583;fill:#50ebd0;fill-opacity:1" /><circle
       cx="142.39351"
       cy="139.05632"
       r="23.373291"
       fill="#e6e6e6"
       id="circle3"
       style="stroke-width:0.264583" /><g
       opacity="0.61"
       id="g4"
       transform="matrix(0.26458333,0,0,0.26458333,85.812362,95.929231)"><path
         d="m 225.88,179.81 a 25.28,25.28 0 0 1 -20.21,9.87 c -12,0 -19,-7.75 -19,-20 0,-17.51 11.51,-33.37 28.31,-33.37 6.81,0 11.4,2.47 13.86,7 l 1.06,-6.1 h 13.74 L 238.09,169 c -0.94,6 -0.47,9.75 4.82,9.75 8.93,0 12.92,-14.8 12.92,-26 0,-18.91 -12,-29.84 -33.24,-29.84 -27.61,0 -47.7,21.5 -47.7,49.23 0,19.5 12.1,30.3 33.13,30.3 a 48.43,48.43 0 0 0 20.09,-4.11 l 2.35,10.81 a 63.86,63.86 0 0 1 -24.79,4.7 c -26.43,0 -43.7,-15.86 -43.7,-40.41 0,-35 26.31,-61.68 62.38,-61.68 27.61,0 44.29,16.45 44.29,40.41 0,18.8 -10,37.36 -28.08,37.36 -8.34,0.04 -13.27,-3.6 -14.68,-9.71 z M 216,148.56 c -8.93,0 -14.57,9.17 -14.57,18.45 0,6.11 2.94,10.45 9.4,10.45 8.57,0 15.39,-8.34 15.39,-17.85 0.01,-6.35 -3.63,-11.05 -10.22,-11.05 z"
         fill="#878787"
         id="path4" /></g><path
       d="m 168.70103,158.29946 c 0,0 -2.70934,-0.74083 -3.29936,-3.26231 0,0 4.19894,-0.84932 4.318,3.48456 z"
       fill="#68e1fd"
       opacity="0.58"
       class="target-color"
       id="path5"
       style="stroke-width:0.264583;fill:#1eb04f;fill-opacity:1" /><path
       d="m 169.0344,158.02958 c 0,0 -1.89441,-2.99243 -0.22754,-5.79172 0,0 3.19352,2.0267 1.77271,5.79966 z"
       fill="#68e1fd"
       opacity="0.73"
       class="target-color"
       id="path6"
       style="stroke-width:0.264583;fill:#1eb04f;fill-opacity:1" /><path
       d="m 169.52124,158.03223 c 0,0 1.00012,-3.16177 4.02431,-3.75973 0,0 0.56621,2.05317 -1.95792,3.76767 z"
       fill="#68e1fd"
       class="target-color"
       id="path7"
       style="stroke-width:0.264583;fill:#1eb04f;fill-opacity:1" /><polygon
       points="311.03,248.66 324.11,248.71 326.03,234.52 308.95,234.45 "
       fill="#24285b"
       id="polygon7"
       transform="matrix(0.26458333,0,0,0.26458333,85.812362,95.929231)" /><rect
       x="148.25932"
       y="109.84103"
       width="25.783646"
       height="10.731501"
       fill="#ffd200"
       id="rect7"
       style="stroke-width:0.264583" /><circle
       cx="154.11455"
       cy="115.14592"
       r="2.9659791"
       fill="#ffffff"
       opacity="0.76"
       id="circle7"
       style="stroke-width:0.264583" /><rect
       x="158.98817"
       y="114.35481"
       width="11.763374"
       height="1.9341041"
       rx="0.96837503"
       fill="#ffffff"
       opacity="0.4"
       id="rect8"
       style="stroke-width:0.264583" /><path
       d="m 116.29501,103.86673 c 0,0 -0.15875,1.79917 0.14023,2.99508 a 0.90487499,0.90487499 0 0 0 1.10595,0.65617 c 0.60061,-0.15875 1.36525,-0.55033 1.56898,-1.50283 l 0.54505,-1.5875 a 1.6271875,1.6271875 0 0 0 -0.71173,-1.73567 c -1.016,-0.71702 -2.60615,0.0767 -2.64848,1.17475 z"
       fill="#f4a28c"
       id="path8"
       style="stroke-width:0.264583" /><polygon
       points="131,55.35 118.69,56.39 121.11,39.89 127.53,33.26 "
       fill="#f4a28c"
       id="polygon8"
       transform="matrix(0.26458333,0,0,0.26458333,85.812362,95.929231)" /><path
       d="m 116.74215,103.94611 a 7.3368957,7.3368957 0 0 0 1.66688,-0.12436 1.5054791,1.5054791 0 0 0 0,1.651 1.2276667,1.2276667 0 0 0 1.47902,0.49477 l -0.0238,-2.32039 a 1.8520833,1.8520833 0 0 0 -0.92605,-1.64307 6.5748958,6.5748958 0 0 0 -0.77522,-0.37835 c -0.66675,-0.26458 -1.64571,0.17198 -2.24367,-0.28046 a 0.43656249,0.43656249 0 0 0 -0.69056,0.28575 c -0.10584,0.70379 0.0159,1.81504 0.97102,2.20398 a 1.7568333,1.7568333 0 0 0 0.54239,0.11113 z"
       fill="#24285b"
       id="path9"
       style="stroke-width:0.264583" /><path
       d="m 118.21059,105.41984 c 0,0 0.0159,-0.69586 0.52917,-0.6403 0.51329,0.0556 0.508,1.05834 -0.20373,1.15094 z"
       fill="#f4a28c"
       id="path10"
       style="stroke-width:0.264583" /><path
       d="m 116.25267,105.00709 -0.50535,0.69585 a 0.28839583,0.28839583 0 0 0 0.17992,0.45244 l 0.69056,0.13229 z"
       fill="#f4a28c"
       id="path11"
       style="stroke-width:0.264583" /><path
       d="m 117.67349,107.43331 a 2.1484166,2.1484166 0 0 0 1.05833,-0.62706 c 0,0 -0.0476,1.08215 -1.23825,2.14842 z"
       fill="#ce8172"
       opacity="0.31"
       id="path12"
       style="stroke-width:0.264583" /><path
       d="m 120.95697,110.57656 -4.05607,0.34132 c 0,0 -8.03804,2.36273 -7.7126,9.91923 0.32544,7.5565 1.05833,16.81162 1.05833,16.81162 l 10.80559,1.40758 c 0,0 17.97579,-24.45543 -0.0953,-28.47975 z"
       fill="#68e1fd"
       class="target-color"
       id="path13"
       style="stroke-width:0.264583;fill:#58c0a6;fill-opacity:1" /><path
       d="m 121.06015,115.59306 c 0,0 -2.21721,1.71186 -1.94733,6.30502 0.26987,4.59317 1.35996,9.80811 -3.37873,9.2763 -4.73869,-0.53182 -6.08542,-2.0373 -6.08542,-2.0373 l 0.60061,8.51165 10.80294,1.40758 0.97631,-1.41552 c 0,0 7.05908,-15.65275 -0.96838,-22.04773 z"
       opacity="0.08"
       id="path14"
       style="stroke-width:0.264583" /><path
       d="m 110.24134,137.64873 -2.91042,2.41565 a 6.2891458,6.2891458 0 0 0 0.93398,10.31875 l 5.55625,3.13795 1.85209,-1.34937 -4.14602,-3.4634 a 2.2039791,2.2039791 0 0 1 0.24077,-3.56658 l 1.48431,-0.92869 a 6.7389374,6.7389374 0 0 1 2.72256,-0.97102 c 1.60602,-0.20373 4.2889,-1.02394 5.08529,-4.17777 z"
       fill="#24285b"
       id="path15"
       style="stroke-width:0.264583" /><path
       d="m 120.70561,117.06415 c 0.1905,-3.70417 4.93713,-5.15409 7.11994,-2.14313 1.34408,1.85209 2.27542,4.49792 1.61925,8.12536 -1.61925,8.99583 -2.56646,16.00993 -7.36071,15.53633 -4.79425,-0.4736 -13.85094,-11.00931 -13.85094,-11.00931 l 2.77019,-1.82563 c 0,0 5.60652,6.08542 9.18898,6.14892 2.54,0.0476 0.1905,-8.509 0.51329,-14.83254 z"
       fill="#68e1fd"
       class="target-color"
       id="path16"
       style="stroke-width:0.264583" /><rect
       x="62.675156"
       y="147.51141"
       width="2.8945415"
       height="5.2149372"
       transform="rotate(-17.94)"
       fill="#ffd200"
       id="rect16"
       style="stroke-width:0.264583" /><path
       d="m 120.70561,117.06415 c 0.1905,-3.70417 4.93713,-5.15409 7.11994,-2.14313 1.34408,1.85209 2.27542,4.49792 1.61925,8.12536 -1.61925,8.99583 -2.56646,16.00993 -7.36071,15.53633 -4.79425,-0.4736 -13.85094,-11.00931 -13.85094,-11.00931 l 2.77019,-1.82563 c 0,0 5.60652,6.08542 9.18898,6.14892 2.54,0.0476 0.1905,-8.509 0.51329,-14.83254 z"
       fill="#ffffff"
       opacity="0.44"
       id="path17"
       style="stroke-width:0.264583;fill:#32f896;fill-opacity:1" /><path
       d="m 108.89197,127.15006 c 0,0 -1.98967,-1.52664 -1.35732,-2.67493 0.63236,-1.1483 3.175,1.48695 3.175,1.48695 z"
       fill="#f4a28c"
       id="path18"
       style="stroke-width:0.264583" /><path
       d="m 121.05222,139.05631 -7.32896,22.16944 -1.85209,-0.0212 c 0,0 2.50032,-14.79285 2.23044,-21.00791 z"
       fill="#24285b"
       id="path19"
       style="stroke-width:0.264583" /><path
       d="m 99.74532,137.34711 c 0,0 -2.590271,1.10066 -1.912937,2.58762 0.677333,1.48696 2.645837,-0.87048 2.645837,-0.87048 z"
       fill="#f4a28c"
       id="path20"
       style="stroke-width:0.264583" /></g></svg>
