<?xml version="1.0" encoding="UTF-8" standalone="no"?>
<svg
   viewBox="0 0 400 300"
   version="1.1"
   id="svg23"
   sodipodi:docname="love.svg"
   inkscape:version="1.3.2 (091e20e, 2023-11-25)"
   xmlns:inkscape="http://www.inkscape.org/namespaces/inkscape"
   xmlns:sodipodi="http://sodipodi.sourceforge.net/DTD/sodipodi-0.dtd"
   xmlns="http://www.w3.org/2000/svg"
   xmlns:svg="http://www.w3.org/2000/svg">
  <defs
     id="defs23" />
  <sodipodi:namedview
     id="namedview23"
     pagecolor="#ffffff"
     bordercolor="#000000"
     borderopacity="0.25"
     inkscape:showpageshadow="2"
     inkscape:pageopacity="0.0"
     inkscape:pagecheckerboard="0"
     inkscape:deskcolor="#d1d1d1"
     showgrid="false"
     inkscape:zoom="1.7325"
     inkscape:cx="193.93939"
     inkscape:cy="131.02453"
     inkscape:window-width="1364"
     inkscape:window-height="732"
     inkscape:window-x="0"
     inkscape:window-y="34"
     inkscape:window-maximized="1"
     inkscape:current-layer="svg23" />
  <path
     d="m 219.93,236.91 a 4,4 0 0 1 -3.93,-3.3 c -6,-33.82 -28.77,-52.23 -29,-52.41 a 4.0136766,4.0136766 0 0 1 5,-6.28 c 1,0.82 25.34,20.35 31.91,57.29 a 4,4 0 0 1 -3.23,4.64 4.34,4.34 0 0 1 -0.75,0.06 z"
     fill="#231f20"
     id="path1" />
  <path
     d="m 168.52,237.14 a 4,4 0 0 1 -3.74,-2.59 c -10.61,-28.12 -0.41,-54 0,-55.1 a 4.0017621,4.0017621 0 0 1 7.42,3 c -0.11,0.29 -9.43,24.2 0,49.29 a 4,4 0 0 1 -2.33,5.15 3.86,3.86 0 0 1 -1.35,0.25 z"
     fill="#231f20"
     id="path2" />
  <path
     d="m 223,206.7 a 7.35,7.35 0 0 1 -2.11,-0.32 c -9.53,-2.86 -12,-26.35 -12.6,-36.32 a 4.0074961,4.0074961 0 1 1 8,-0.49 c 0.84,13.53 4,27 6.71,29 1.36,-1.08 4.78,-6.75 7.79,-23.37 l 0.11,-0.61 a 4,4 0 1 1 7.85,1.54 l -0.09,0.49 c -4.42,24.45 -9.89,27.81 -11.69,28.91 A 7.51,7.51 0 0 1 223,206.7 Z"
     fill="#231f20"
     id="path3" />
  <path
     d="m 146.06,206.31 c -1.75,0 -4.2,-0.79 -6.29,-4.37 -3.43,-5.86 -5.49,-18.3 -6.42,-25.2 -2.51,-18.71 -0.85,-20.29 0.25,-21.33 a 4,4 0 0 1 6.47,4.38 c -0.18,2 0.25,10 1.77,19.73 1.47,9.35 3.07,14.64 4.22,17.22 2.43,-5.77 5.31,-22.47 6.49,-43.16 a 4.0063231,4.0063231 0 0 1 8,0.45 c 0,0.48 -0.69,11.83 -2.26,23.67 -2.89,21.74 -6.29,27.06 -10.51,28.36 a 5.74,5.74 0 0 1 -1.72,0.25 z m -6.95,-45.1 z m 0,0 z m 1,-1.67 z"
     fill="#231f20"
     id="path4" />
  <ellipse
     cx="197.77"
     cy="259.89001"
     rx="54.23"
     ry="7.6100001"
     fill="#e6e7e8"
     id="ellipse4" />
  <circle
     cx="191.58"
     cy="123.06"
     r="65.449997"
     fill="#589fa6"
     id="circle4" />
  <path
     d="m 191.58,57.61 a 65.45,65.45 0 1 1 -65.45,65.45 65.45,65.45 0 0 1 65.45,-65.45 m 0,-1 a 66.48,66.48 0 1 0 66.48,66.48 66.55,66.55 0 0 0 -66.48,-66.48 z"
     fill="#231f20"
     id="path5" />
  <ellipse
     cx="-43.200924"
     cy="181.4473"
     rx="5.0599999"
     ry="7.96"
     transform="rotate(-68.79)"
     fill="#ffffff"
     id="ellipse5" />
  <ellipse
     cx="-34.462032"
     cy="269.46783"
     rx="5.0599999"
     ry="7.96"
     transform="rotate(-68.79)"
     fill="#ffffff"
     id="ellipse6" />
  <path
     d="m 227.71,95.38 0.55,-0.51 a 8.62,8.62 0 0 1 4.24,-2.09 7.69,7.69 0 0 1 7.82,3.56 7.17,7.17 0 0 1 1,4.46 12.77,12.77 0 0 1 -0.7,2.93 12,12 0 0 1 -1.27,2.65 11.79,11.79 0 0 1 -3.25,3.24 38.9,38.9 0 0 1 -4.1,2.38 c -2.43,1.28 -4.86,2.55 -7.28,3.84 -0.72,0.38 -1.41,0.79 -2.12,1.19 l -0.12,0.07 c -0.12,-0.17 -0.23,-0.33 -0.33,-0.5 -1.5,-2.3 -3.09,-4.54 -4.69,-6.77 -1,-1.46 -2.09,-2.91 -3,-4.45 a 15.53,15.53 0 0 1 -1.66,-3.52 10.62,10.62 0 0 1 -0.43,-4.08 15.29,15.29 0 0 1 0.54,-3 7.26,7.26 0 0 1 6.36,-5.37 7.62,7.62 0 0 1 7.48,3.8 9.36,9.36 0 0 1 0.94,2 c 0,0 0,0.11 0.02,0.17 z"
     id="path6" />
  <path
     d="m 184.2,82 0.59,-0.46 a 8.65,8.65 0 0 1 4.41,-1.72 7.52,7.52 0 0 1 3.63,0.58 7.34,7.34 0 0 1 3.85,3.63 7.22,7.22 0 0 1 0.61,4.53 12.67,12.67 0 0 1 -1,2.86 11.58,11.58 0 0 1 -1.44,2.58 11.89,11.89 0 0 1 -3.51,3 38.09,38.09 0 0 1 -4.28,2 l -7.58,3.21 c -0.74,0.32 -1.47,0.67 -2.2,1 l -0.14,0.06 -0.28,-0.53 c -1.3,-2.42 -2.69,-4.79 -4.1,-7.15 -0.91,-1.54 -1.84,-3.07 -2.64,-4.68 a 16.36,16.36 0 0 1 -1.36,-3.65 10.67,10.67 0 0 1 -0.08,-4.1 15.15,15.15 0 0 1 0.8,-3 7.26,7.26 0 0 1 6.79,-4.81 7.62,7.62 0 0 1 7.13,4.42 9.36,9.36 0 0 1 0.77,2.11 1.21,1.21 0 0 0 0.03,0.12 z"
     id="path7" />
  <path
     d="m 120.19,74.68 0.22,-0.3 a 4.14,4.14 0 0 1 1.81,-1.38 3.65,3.65 0 0 1 1.76,-0.22 3.54,3.54 0 0 1 3.18,3.22 5.88,5.88 0 0 1 -0.06,1.45 5.6,5.6 0 0 1 -0.35,1.38 5.7,5.7 0 0 1 -1.23,1.85 19,19 0 0 1 -1.71,1.52 l -3.09,2.52 -0.89,0.76 v 0 l -0.2,-0.21 c -0.93,-1 -1.9,-1.86 -2.87,-2.77 -0.63,-0.59 -1.27,-1.18 -1.86,-1.81 a 8,8 0 0 1 -1.13,-1.52 5.21,5.21 0 0 1 -0.59,-1.89 7.42,7.42 0 0 1 0,-1.49 3.5,3.5 0 0 1 2.51,-3.15 3.68,3.68 0 0 1 3.91,1.09 4.31,4.31 0 0 1 0.64,0.88 0.16,0.16 0 0 1 -0.05,0.07 z"
     fill="#e6e7e8"
     id="path8"
     style="fill:#cccccc;fill-opacity:1" />
  <path
     d="m 284.33,108.49 0.49,-0.28 a 6.59,6.59 0 0 1 3.5,-0.85 5.85,5.85 0 0 1 5.2,3.94 5.52,5.52 0 0 1 0,3.48 9.77,9.77 0 0 1 -1,2 8.66,8.66 0 0 1 -1.38,1.75 8.87,8.87 0 0 1 -2.95,1.87 31.13,31.13 0 0 1 -3.43,1.1 l -6,1.64 c -0.59,0.16 -1.17,0.35 -1.76,0.53 h -0.11 c -0.05,-0.15 -0.1,-0.29 -0.16,-0.43 -0.73,-1.95 -1.53,-3.88 -2.35,-5.8 -0.53,-1.26 -1.07,-2.51 -1.5,-3.8 a 11.87,11.87 0 0 1 -0.65,-2.89 7.94,7.94 0 0 1 0.36,-3.1 12.23,12.23 0 0 1 0.9,-2.15 5.51,5.51 0 0 1 5.61,-2.92 5.78,5.78 0 0 1 4.92,4.06 7.35,7.35 0 0 1 0.36,1.66 0.45,0.45 0 0 0 -0.05,0.19 z"
     fill="#e6e7e8"
     id="path9"
     style="fill:#cccccc;fill-opacity:1" />
  <path
     d="m 276.42,59.65 c 0.23,-0.14 0.43,-0.28 0.65,-0.4 a 8.81,8.81 0 0 1 4.64,-1.25 7.81,7.81 0 0 1 7.12,5 7.37,7.37 0 0 1 0.12,4.64 12.34,12.34 0 0 1 -1.27,2.79 11.9,11.9 0 0 1 -1.77,2.4 12,12 0 0 1 -3.91,2.66 40,40 0 0 1 -4.54,1.6 l -8,2.44 c -0.79,0.24 -1.56,0.52 -2.34,0.78 h -0.14 c -0.08,-0.2 -0.16,-0.38 -0.23,-0.57 -1.06,-2.58 -2.21,-5.13 -3.38,-7.66 -0.76,-1.66 -1.53,-3.31 -2.17,-5 a 16.41,16.41 0 0 1 -1,-3.84 10.84,10.84 0 0 1 0.36,-4.16 15.77,15.77 0 0 1 1.12,-2.91 7.38,7.38 0 0 1 7.38,-4.14 7.76,7.76 0 0 1 6.74,5.23 9.49,9.49 0 0 1 0.55,2.22 0.93,0.93 0 0 0 0.07,0.17 z"
     fill="#e6e7e8"
     id="path10"
     style="fill:#cccccc;fill-opacity:1" />
  <path
     d="m 138.71,45.29 c 0.15,-0.11 0.29,-0.23 0.44,-0.33 a 6.33,6.33 0 0 1 3.23,-1.27 5.54,5.54 0 0 1 2.67,0.43 5.43,5.43 0 0 1 2.84,2.66 5.34,5.34 0 0 1 0.44,3.34 9.26,9.26 0 0 1 -0.7,2.1 9.15,9.15 0 0 1 -1.09,1.86 8.56,8.56 0 0 1 -2.54,2.17 28.37,28.37 0 0 1 -3.15,1.5 l -5.57,2.36 c -0.55,0.24 -1.08,0.5 -1.62,0.74 h -0.1 l -0.21,-0.39 c -0.95,-1.78 -2,-3.52 -3,-5.26 -0.67,-1.13 -1.35,-2.26 -1.94,-3.44 a 11.7,11.7 0 0 1 -1,-2.68 7.87,7.87 0 0 1 -0.06,-3 11.48,11.48 0 0 1 0.58,-2.18 5.36,5.36 0 0 1 5,-3.54 5.6,5.6 0 0 1 5.24,3.25 6.12,6.12 0 0 1 0.56,1.55 z"
     fill="#e6e7e8"
     id="path11"
     style="fill:#cccccc;fill-opacity:1" />
  <path
     d="m 231.84,38.77 0.31,-0.25 a 4.63,4.63 0 0 1 2.33,-0.91 3.93,3.93 0 0 1 1.92,0.31 3.9,3.9 0 0 1 2.36,4.32 6.69,6.69 0 0 1 -0.5,1.51 6.46,6.46 0 0 1 -0.79,1.34 6.1,6.1 0 0 1 -1.86,1.56 20.37,20.37 0 0 1 -2.26,1.08 l -4,1.7 -1.16,0.53 h -0.07 a 2.54,2.54 0 0 1 -0.16,-0.28 c -0.68,-1.28 -1.42,-2.53 -2.16,-3.78 -0.48,-0.81 -1,-1.62 -1.4,-2.47 a 8.38,8.38 0 0 1 -0.72,-1.94 5.66,5.66 0 0 1 0,-2.17 8.67,8.67 0 0 1 0.42,-1.57 3.86,3.86 0 0 1 3.6,-2.54 4,4 0 0 1 3.77,2.34 4.91,4.91 0 0 1 0.4,1.11 0.45,0.45 0 0 1 -0.03,0.11 z"
     fill="#e6e7e8"
     id="path12"
     style="fill:#cccccc;fill-opacity:1" />
  <path
     d="m 235.74,145.91 -86.94,-27 c 0,0 -11,32.8 28.94,46.92 39.94,14.12 58,-19.92 58,-19.92 z"
     fill="#231f20"
     id="path13" />
  <path
     d="m 152.35,175.55 c 0,0 0.41,-11.52 -5.72,-16.37 C 140.5,154.33 132,152 132,152 c 0,0 -2.53,-15.17 -7,-15.91 -4.47,-0.74 -7.74,9.85 -6.54,17.32 1.2,7.47 12.59,16.76 12.59,16.76 z"
     fill="#ffffff"
     id="path14" />
  <path
     d="m 152.35,176.06 h -0.13 l -21.28,-5.41 a 0.54,0.54 0 0 1 -0.2,-0.1 c -0.47,-0.39 -11.56,-9.5 -12.78,-17.08 -0.94,-5.91 0.84,-13.69 3.83,-16.65 a 3.75,3.75 0 0 1 3.3,-1.26 c 4.46,0.74 6.91,13.41 7.36,16 1.63,0.48 9,2.82 14.5,7.21 6.26,4.95 5.93,16.3 5.91,16.78 a 0.51,0.51 0 0 1 -0.2,0.4 0.5,0.5 0 0 1 -0.31,0.11 z m -21,-6.4 20.53,5.22 c 0,-2.46 -0.49,-11.31 -5.52,-15.3 -6,-4.73 -14.36,-7.09 -14.45,-7.11 a 0.5,0.5 0 0 1 -0.37,-0.41 c -0.69,-4.12 -3.21,-14.93 -6.57,-15.49 a 2.73,2.73 0 0 0 -2.4,1 c -2.74,2.72 -4.43,10.23 -3.54,15.76 1.05,6.82 11.22,15.46 12.27,16.33 z"
     fill="#231f20"
     id="path15" />
  <rect
     x="-148.98187"
     y="-184.1501"
     width="34.669998"
     height="8.5100002"
     rx="3.99"
     transform="rotate(176.9)"
     fill="#ffffff"
     id="rect15" />
  <path
     d="m 127.86,178 a 4.45,4.45 0 0 1 -3,-1.15 4.49,4.49 0 0 1 -1.49,-3.11 v -0.53 a 4.51,4.51 0 0 1 4.25,-4.74 v 0 L 154.26,167 a 4.52,4.52 0 0 1 4.74,4.25 v 0.54 a 4.47,4.47 0 0 1 -1.14,3.25 4.52,4.52 0 0 1 -3.11,1.49 L 128.11,178 Z m -0.21,-8.5 a 3.47,3.47 0 0 0 -3.28,3.65 v 0.53 a 3.47,3.47 0 0 0 3.65,3.28 l 26.67,-1.44 a 3.47,3.47 0 0 0 3.27,-3.65 v -0.54 a 3.49,3.49 0 0 0 -3.65,-3.28 z"
     fill="#231f20"
     id="path16" />
  <path
     d="m 223.74,187.92 c 0,0 -0.41,-11.51 5.71,-16.36 6.12,-4.85 14.63,-7.21 14.63,-7.21 0,0 2.54,-15.17 7,-15.92 4.46,-0.75 7.73,9.85 6.53,17.32 -1.2,7.47 -12.61,16.76 -12.61,16.76 z"
     fill="#ffffff"
     id="path17" />
  <path
     d="m 223.74,188.44 a 0.55,0.55 0 0 1 -0.31,-0.1 0.53,0.53 0 0 1 -0.21,-0.4 c 0,-0.48 -0.35,-11.83 5.91,-16.79 5.55,-4.39 12.88,-6.72 14.5,-7.21 0.46,-2.61 2.9,-15.27 7.36,-16 a 3.74,3.74 0 0 1 3.3,1.25 c 3,3 4.78,10.75 3.83,16.65 -1.22,7.58 -12.3,16.7 -12.77,17.08 a 0.54,0.54 0 0 1 -0.2,0.1 l -21.29,5.41 z m 27.78,-39.53 a 2.19,2.19 0 0 0 -0.36,0 c -3.36,0.56 -5.88,11.38 -6.57,15.5 a 0.53,0.53 0 0 1 -0.37,0.41 c -0.08,0 -8.48,2.38 -14.45,7.11 -5,4 -5.49,12.84 -5.52,15.3 L 244.78,182 c 1.05,-0.87 11.22,-9.52 12.32,-16.37 0.89,-5.53 -0.8,-13 -3.53,-15.76 a 3,3 0 0 0 -2.05,-0.96 z"
     fill="#231f20"
     id="path18" />
  <rect
     x="225.23851"
     y="169.13507"
     width="34.669998"
     height="8.5100002"
     rx="3.99"
     transform="rotate(3.1)"
     fill="#ffffff"
     id="rect18" />
  <path
     d="m 246.17,191.75 h -0.25 l -26.66,-1.44 A 4.51,4.51 0 0 1 215,185.57 v -0.54 a 4.52,4.52 0 0 1 4.74,-4.25 l 26.67,1.44 v 0 a 4.52,4.52 0 0 1 4.25,4.74 v 0.54 a 4.51,4.51 0 0 1 -4.49,4.25 z m -26.64,-9.95 a 3.48,3.48 0 0 0 -3.47,3.28 v 0.53 a 3.41,3.41 0 0 0 0.88,2.51 3.45,3.45 0 0 0 2.39,1.15 l 26.67,1.44 a 3.48,3.48 0 0 0 3.65,-3.28 v -0.53 a 3.47,3.47 0 0 0 -3.28,-3.65 l -26.66,-1.45 z"
     fill="#231f20"
     id="path19" />
  <path
     d="m 206.83,227.38 c 0,0 19.88,-14.88 21.28,-12.49 1.4,2.39 10.12,23.17 10.12,23.17 0,0 30.6,1.4 27.67,4.85 -2.93,3.45 -43,17 -43,17 z"
     fill="#ffffff"
     id="path20" />
  <path
     d="m 222.94,260.41 a 0.52,0.52 0 0 1 -0.46,-0.29 l -16.12,-32.51 a 0.52,0.52 0 0 1 0.16,-0.64 c 1.84,-1.38 18.08,-13.47 21.33,-12.82 a 1,1 0 0 1 0.71,0.48 c 1.32,2.26 8.9,20.27 10,22.93 5.15,0.25 26.63,1.44 27.94,4.46 a 1.12,1.12 0 0 1 -0.23,1.22 c -3,3.52 -41.54,16.59 -43.18,17.14 a 0.51,0.51 0 0 1 -0.15,0.03 z m -15.46,-32.87 15.73,31.72 c 11.39,-3.87 40,-14 42.29,-16.69 0.06,-0.07 0.08,-0.11 0.07,-0.14 -0.72,-1.66 -14.48,-3.26 -27.36,-3.85 a 0.52,0.52 0 0 1 -0.46,-0.32 c -0.08,-0.2 -8.71,-20.78 -10.08,-23.11 -1.22,-0.72 -11.37,5.85 -20.19,12.39 z"
     fill="#231f20"
     id="path21" />
  <path
     d="m 178.15,221.66 c 0,0 -24.6,-3.45 -24.68,-0.69 -0.08,2.76 2.3,25.18 2.3,25.18 0,0 -26.14,16 -21.91,17.58 4.23,1.58 45.83,-5.81 45.83,-5.81 z"
     fill="#ffffff"
     id="path22" />
  <path
     d="m 136.07,264.45 a 7.82,7.82 0 0 1 -2.39,-0.24 1.12,1.12 0 0 1 -0.79,-1 c -0.06,-0.63 -0.21,-2.31 11.3,-10.2 4.87,-3.34 9.83,-6.42 11,-7.17 -0.31,-2.87 -2.35,-22.3 -2.27,-24.92 a 1,1 0 0 1 0.39,-0.77 c 2.5,-2.11 22.59,0.64 24.87,1 a 0.52,0.52 0 0 1 0.44,0.49 l 1.54,36.26 a 0.52,0.52 0 0 1 -0.42,0.53 c -1.49,0.27 -33.89,6.02 -43.67,6.02 z m 22.05,-44 c -2.35,0 -3.89,0.18 -4.14,0.61 -0.07,2.67 2.28,24.86 2.31,25.08 a 0.51,0.51 0 0 1 -0.25,0.49 c -11,6.73 -22.29,14.76 -22.12,16.56 0,0 0,0.06 0.13,0.09 3.31,1.27 33.25,-3.65 45.1,-5.75 l -1.5,-35.38 a 167.11,167.11 0 0 0 -19.53,-1.74 z"
     fill="#231f20"
     id="path23" />
</svg>
